<?xml version="1.0" encoding="UTF-8"?>
<!DOCTYPE svg PUBLIC "-//W3C//DTD SVG 1.1//EN" "http://www.w3.org/Graphics/SVG/1.1/DTD/svg11.dtd">
<svg xmlns="http://www.w3.org/2000/svg" version="1.1" width="2288px" height="799px" style="shape-rendering:geometricPrecision; text-rendering:geometricPrecision; image-rendering:optimizeQuality; fill-rule:evenodd; clip-rule:evenodd" xmlns:xlink="http://www.w3.org/1999/xlink">
<g><path style="opacity:0.995" fill="#144477" d="M 7.5,-0.5 C 64.5,-0.5 121.5,-0.5 178.5,-0.5C 178.333,108.834 178.5,218.167 179,327.5C 179.21,348.89 183.877,369.223 193,388.5C 206.274,410.224 225.774,420.558 251.5,419.5C 295.07,418.429 320.57,396.429 328,353.5C 329.493,344.219 330.493,334.886 331,325.5C 331.5,216.834 331.667,108.167 331.5,-0.5C 388.5,-0.5 445.5,-0.5 502.5,-0.5C 502.667,118.5 502.5,237.5 502,356.5C 494.564,461.929 439.064,524.762 335.5,545C 282.218,554.517 228.884,554.851 175.5,546C 70.4284,525.922 14.5951,462.422 8,355.5C 7.5,236.834 7.33333,118.167 7.5,-0.5 Z"/></g>
<g><path style="opacity:0.996" fill="#144477" d="M 591.5,-0.5 C 648.5,-0.5 705.5,-0.5 762.5,-0.5C 813.321,94.4731 864.154,189.473 915,284.5C 915.5,189.501 915.667,94.5006 915.5,-0.5C 969.833,-0.5 1024.17,-0.5 1078.5,-0.5C 1078.5,178.167 1078.5,356.833 1078.5,535.5C 1024.17,535.667 969.832,535.5 915.5,535C 859.207,440.249 803.041,345.416 747,250.5C 746.5,345.499 746.333,440.499 746.5,535.5C 694.833,535.5 643.167,535.5 591.5,535.5C 591.5,356.833 591.5,178.167 591.5,-0.5 Z"/></g>
<g><path style="opacity:0.996" fill="#144477" d="M 1175.5,-0.5 C 1229.83,-0.5 1284.17,-0.5 1338.5,-0.5C 1338.5,178.167 1338.5,356.833 1338.5,535.5C 1284.17,535.5 1229.83,535.5 1175.5,535.5C 1175.5,356.833 1175.5,178.167 1175.5,-0.5 Z"/></g>
<g><path style="opacity:0.994" fill="#144477" d="M 1377.5,-0.5 C 1559.17,-0.5 1740.83,-0.5 1922.5,-0.5C 1951.71,64.9259 1981.21,130.259 2011,195.5C 2043.43,130.299 2075.6,64.9655 2107.5,-0.5C 2167.5,-0.5 2227.5,-0.5 2287.5,-0.5C 2287.5,0.166667 2287.5,0.833333 2287.5,1.5C 2222.44,113.274 2157.61,225.274 2093,337.5C 2092.5,403.499 2092.33,469.499 2092.5,535.5C 2038.17,535.5 1983.83,535.5 1929.5,535.5C 1929.67,469.499 1929.5,403.499 1929,337.5C 1891.7,272.038 1854.2,206.704 1816.5,141.5C 1770.84,140.5 1725.17,140.167 1679.5,140.5C 1679.5,272.167 1679.5,403.833 1679.5,535.5C 1624.83,535.5 1570.17,535.5 1515.5,535.5C 1515.5,403.833 1515.5,272.167 1515.5,140.5C 1469.5,140.5 1423.5,140.5 1377.5,140.5C 1377.5,93.5 1377.5,46.5 1377.5,-0.5 Z"/></g>
<g><path style="opacity:0.952" fill="#144477" d="M 45.5,635.5 C 59.4534,633.545 72.4534,636.045 84.5,643C 92.72,649.607 97.72,658.107 99.5,668.5C 92.1693,669.669 84.836,670.502 77.5,671C 70.1063,654.315 58.1063,649.981 41.5,658C 32.735,666.174 28.735,676.34 29.5,688.5C 29.7803,696.413 31.2803,704.08 34,711.5C 41.4146,722.75 51.5812,726.25 64.5,722C 71.9566,717.588 76.2899,711.088 77.5,702.5C 84.8993,703.85 92.2327,705.516 99.5,707.5C 94.2985,731.032 79.6319,742.699 55.5,742.5C 29.3252,742.163 13.4919,729.163 8,703.5C 4.99377,686.221 7.66043,669.888 16,654.5C 23.5213,644.494 33.3546,638.161 45.5,635.5 Z"/></g>
<g><path style="opacity:0.957" fill="#144477" d="M 153.5,635.5 C 171.812,632.522 188.145,636.688 202.5,648C 213.145,659.872 218.145,673.872 217.5,690C 218.623,710.415 210.956,726.415 194.5,738C 190.729,740.219 186.729,741.885 182.5,743C 134.217,749.386 111.717,728.22 115,679.5C 117.921,655.903 130.754,641.237 153.5,635.5 Z M 158.5,654.5 C 182.86,653.191 194.86,664.858 194.5,689.5C 195.075,701.282 191.408,711.448 183.5,720C 173.232,726.507 162.565,727.173 151.5,722C 145.429,717.585 141.262,711.752 139,704.5C 136.554,692.639 137.221,680.972 141,669.5C 144.889,662.103 150.722,657.103 158.5,654.5 Z"/></g>
<g><path style="opacity:0.956" fill="#144477" d="M 369.5,635.5 C 377.84,635.334 386.173,635.5 394.5,636C 412.684,639.343 422.018,650.176 422.5,668.5C 415.137,668.831 407.803,668.497 400.5,667.5C 399.448,660.952 395.781,656.785 389.5,655C 381.769,653.603 374.436,654.603 367.5,658C 363.305,662.924 363.971,667.257 369.5,671C 381.45,674.791 393.45,678.458 405.5,682C 422.192,689.55 428.692,702.384 425,720.5C 420.318,734.101 410.818,741.935 396.5,744C 385.034,745.124 373.7,744.457 362.5,742C 347.471,735.449 339.804,723.949 339.5,707.5C 346.827,707.056 354.16,706.723 361.5,706.5C 362.161,715.666 366.828,721.832 375.5,725C 381.917,725.87 388.251,725.536 394.5,724C 402.44,720.34 404.773,714.507 401.5,706.5C 399.507,704.501 397.173,703.001 394.5,702C 381.02,699.048 368.02,694.715 355.5,689C 342.462,677.511 339.962,664.011 348,648.5C 353.928,641.96 361.094,637.626 369.5,635.5 Z"/></g>
<g><path style="opacity:0.959" fill="#144477" d="M 916.5,635.5 C 924.84,635.334 933.173,635.5 941.5,636C 959.151,639.483 970.151,649.983 974.5,667.5C 966.942,669.95 959.276,670.95 951.5,670.5C 947.589,659.425 939.756,654.091 928,654.5C 912.969,655.195 903.636,662.862 900,677.5C 897.799,689.558 899.132,701.225 904,712.5C 911.921,723.923 922.755,728.089 936.5,725C 942.226,723.303 947.559,720.803 952.5,717.5C 953.492,713.217 953.826,708.884 953.5,704.5C 945.167,704.5 936.833,704.5 928.5,704.5C 928.5,698.5 928.5,692.5 928.5,686.5C 944.167,686.5 959.833,686.5 975.5,686.5C 975.667,700.837 975.5,715.171 975,729.5C 956.287,743.384 935.454,747.884 912.5,743C 887.466,734.137 875.466,716.304 876.5,689.5C 875.894,660.818 889.227,642.818 916.5,635.5 Z"/></g>
<g><path style="opacity:0.953" fill="#144477" d="M 1068.5,635.5 C 1076.57,635.137 1084.57,635.637 1092.5,637C 1108.62,645.59 1112.12,657.756 1103,673.5C 1098.79,677.382 1094.29,680.882 1089.5,684C 1094,689.833 1098.5,695.667 1103,701.5C 1105.08,698.107 1106.24,694.44 1106.5,690.5C 1113.29,691.659 1119.96,693.326 1126.5,695.5C 1124.72,702.677 1122.05,709.51 1118.5,716C 1119.1,717.605 1120.1,718.938 1121.5,720C 1125.8,722.641 1129.8,725.641 1133.5,729C 1129.85,733.989 1126.18,738.989 1122.5,744C 1120.36,744.635 1118.36,744.301 1116.5,743C 1112.05,740.217 1107.88,737.05 1104,733.5C 1091.74,744.047 1077.57,747.547 1061.5,744C 1040.39,737.873 1032.22,724.04 1037,702.5C 1041.64,692.695 1048.81,685.361 1058.5,680.5C 1051.45,672.841 1048.28,663.841 1049,653.5C 1051.87,643.463 1058.37,637.463 1068.5,635.5 Z M 1074.5,650.5 C 1082.02,648.759 1087.02,651.425 1089.5,658.5C 1087.25,663.749 1083.59,667.749 1078.5,670.5C 1074.33,666.992 1071.33,662.659 1069.5,657.5C 1070.06,654.288 1071.73,651.955 1074.5,650.5 Z M 1069.5,694.5 C 1076.49,702.164 1083.16,710.164 1089.5,718.5C 1081.49,725.863 1072.49,727.363 1062.5,723C 1057.35,717.656 1056.18,711.489 1059,704.5C 1061.74,700.26 1065.24,696.926 1069.5,694.5 Z"/></g>
<g><path style="opacity:0.957" fill="#144477" d="M 1487.5,635.5 C 1505.81,632.522 1522.15,636.688 1536.5,648C 1547.14,659.872 1552.14,673.872 1551.5,690C 1552.62,710.415 1544.96,726.415 1528.5,738C 1524.73,740.219 1520.73,741.885 1516.5,743C 1468.22,749.386 1445.72,728.22 1449,679.5C 1451.92,655.903 1464.75,641.237 1487.5,635.5 Z M 1492.5,654.5 C 1516.86,653.191 1528.86,664.858 1528.5,689.5C 1529.07,701.282 1525.41,711.448 1517.5,720C 1507.23,726.507 1496.57,727.173 1485.5,722C 1479.43,717.585 1475.26,711.752 1473,704.5C 1470.55,692.639 1471.22,680.972 1475,669.5C 1478.89,662.103 1484.72,657.103 1492.5,654.5 Z"/></g>
<g><path style="opacity:0.957" fill="#144477" d="M 1927.5,635.5 C 1945.81,632.522 1962.15,636.688 1976.5,648C 1987.14,659.872 1992.14,673.872 1991.5,690C 1992.62,710.415 1984.96,726.415 1968.5,738C 1964.73,740.219 1960.73,741.885 1956.5,743C 1908.22,749.386 1885.72,728.22 1889,679.5C 1891.92,655.903 1904.75,641.237 1927.5,635.5 Z M 1932.5,654.5 C 1956.86,653.191 1968.86,664.858 1968.5,689.5C 1969.07,701.282 1965.41,711.448 1957.5,720C 1947.23,726.507 1936.57,727.173 1925.5,722C 1919.43,717.585 1915.26,711.752 1913,704.5C 1910.55,692.639 1911.22,680.972 1915,669.5C 1918.89,662.103 1924.72,657.103 1932.5,654.5 Z"/></g>
<g><path style="opacity:0.957" fill="#144477" d="M 235.5,637.5 C 243.196,637.169 250.862,637.503 258.5,638.5C 272.198,660.368 285.698,682.368 299,704.5C 299.5,682.169 299.667,659.836 299.5,637.5C 306.5,637.5 313.5,637.5 320.5,637.5C 320.5,672.5 320.5,707.5 320.5,742.5C 312.58,742.815 304.747,742.482 297,741.5C 283.416,720.001 270.083,698.334 257,676.5C 256.5,698.497 256.333,720.497 256.5,742.5C 249.5,742.5 242.5,742.5 235.5,742.5C 235.5,707.5 235.5,672.5 235.5,637.5 Z"/></g>
<g><path style="opacity:0.971" fill="#144477" d="M 445.5,637.5 C 452.833,637.5 460.167,637.5 467.5,637.5C 467.103,662.526 467.603,687.526 469,712.5C 472.178,721.985 478.844,726.318 489,725.5C 497.728,726.142 503.728,722.475 507,714.5C 508.377,688.857 508.877,663.19 508.5,637.5C 515.833,637.5 523.167,637.5 530.5,637.5C 530.667,661.836 530.5,686.169 530,710.5C 527.548,735.435 513.714,746.769 488.5,744.5C 471.005,746.638 457.838,740.305 449,725.5C 447.358,720.292 446.358,714.959 446,709.5C 445.5,685.502 445.333,661.502 445.5,637.5 Z"/></g>
<g><path style="opacity:0.991" fill="#144477" d="M 554.5,637.5 C 561.833,637.5 569.167,637.5 576.5,637.5C 576.5,666.5 576.5,695.5 576.5,724.5C 594.167,724.5 611.833,724.5 629.5,724.5C 629.5,730.5 629.5,736.5 629.5,742.5C 604.5,742.5 579.5,742.5 554.5,742.5C 554.5,707.5 554.5,672.5 554.5,637.5 Z"/></g>
<g><path style="opacity:0.994" fill="#144477" d="M 628.5,637.5 C 656.5,637.5 684.5,637.5 712.5,637.5C 712.5,643.5 712.5,649.5 712.5,655.5C 702.167,655.5 691.833,655.5 681.5,655.5C 681.5,684.5 681.5,713.5 681.5,742.5C 674.167,742.5 666.833,742.5 659.5,742.5C 659.5,713.5 659.5,684.5 659.5,655.5C 649.167,655.5 638.833,655.5 628.5,655.5C 628.5,649.5 628.5,643.5 628.5,637.5 Z"/></g>
<g><path style="opacity:0.977" fill="#144477" d="M 727.5,637.5 C 734.833,637.5 742.167,637.5 749.5,637.5C 749.5,672.5 749.5,707.5 749.5,742.5C 742.167,742.5 734.833,742.5 727.5,742.5C 727.5,707.5 727.5,672.5 727.5,637.5 Z"/></g>
<g><path style="opacity:0.957" fill="#144477" d="M 770.5,637.5 C 778.196,637.169 785.862,637.503 793.5,638.5C 807.198,660.368 820.698,682.368 834,704.5C 834.5,682.169 834.667,659.836 834.5,637.5C 841.5,637.5 848.5,637.5 855.5,637.5C 855.5,672.5 855.5,707.5 855.5,742.5C 847.58,742.815 839.747,742.482 832,741.5C 818.416,720.001 805.083,698.334 792,676.5C 791.5,698.497 791.333,720.497 791.5,742.5C 784.5,742.5 777.5,742.5 770.5,742.5C 770.5,707.5 770.5,672.5 770.5,637.5 Z"/></g>
<g><path style="opacity:0.977" fill="#144477" d="M 1191.5,637.5 C 1198.83,637.5 1206.17,637.5 1213.5,637.5C 1213.5,672.5 1213.5,707.5 1213.5,742.5C 1206.17,742.5 1198.83,742.5 1191.5,742.5C 1191.5,707.5 1191.5,672.5 1191.5,637.5 Z"/></g>
<g><path style="opacity:0.957" fill="#144477" d="M 1234.5,637.5 C 1242.2,637.169 1249.86,637.503 1257.5,638.5C 1271.2,660.368 1284.7,682.368 1298,704.5C 1298.5,682.169 1298.67,659.836 1298.5,637.5C 1305.5,637.5 1312.5,637.5 1319.5,637.5C 1319.5,672.5 1319.5,707.5 1319.5,742.5C 1311.58,742.815 1303.75,742.482 1296,741.5C 1282.42,720.001 1269.08,698.334 1256,676.5C 1255.5,698.497 1255.33,720.497 1255.5,742.5C 1248.5,742.5 1241.5,742.5 1234.5,742.5C 1234.5,707.5 1234.5,672.5 1234.5,637.5 Z"/></g>
<g><path style="opacity:0.957" fill="#144477" d="M 1343.5,637.5 C 1351.2,637.169 1358.86,637.503 1366.5,638.5C 1380.2,660.368 1393.7,682.368 1407,704.5C 1407.5,682.169 1407.67,659.836 1407.5,637.5C 1414.5,637.5 1421.5,637.5 1428.5,637.5C 1428.5,672.5 1428.5,707.5 1428.5,742.5C 1420.58,742.815 1412.75,742.482 1405,741.5C 1391.42,720.001 1378.08,698.334 1365,676.5C 1364.5,698.497 1364.33,720.497 1364.5,742.5C 1357.5,742.5 1350.5,742.5 1343.5,742.5C 1343.5,707.5 1343.5,672.5 1343.5,637.5 Z"/></g>
<g><path style="opacity:0.96" fill="#144477" d="M 1558.5,638.5 C 1566.65,637.507 1574.98,637.174 1583.5,637.5C 1591.69,662.909 1600.19,688.243 1609,713.5C 1617.68,688.303 1625.84,662.969 1633.5,637.5C 1641.5,637.5 1649.5,637.5 1657.5,637.5C 1645.63,672.242 1633.47,706.908 1621,741.5C 1612.91,742.648 1604.75,742.815 1596.5,742C 1583.91,707.38 1571.24,672.88 1558.5,638.5 Z"/></g>
<g><path style="opacity:0.967" fill="#144477" d="M 1689.5,637.5 C 1697.09,637.186 1704.59,637.519 1712,638.5C 1726.17,672.833 1740.33,707.167 1754.5,741.5C 1746.52,742.665 1738.52,742.832 1730.5,742C 1727.21,734.636 1724.21,727.136 1721.5,719.5C 1707.83,718.167 1694.17,718.167 1680.5,719.5C 1677.4,726.977 1674.4,734.477 1671.5,742C 1663.5,742.667 1655.5,742.667 1647.5,742C 1661.6,707.195 1675.6,672.361 1689.5,637.5 Z M 1699.5,666.5 C 1701.28,667.574 1702.45,669.24 1703,671.5C 1706.81,681.087 1710.31,690.754 1713.5,700.5C 1704.81,700.831 1696.14,700.498 1687.5,699.5C 1691.9,688.618 1695.9,677.618 1699.5,666.5 Z"/></g>
<g><path style="opacity:0.994" fill="#144477" d="M 1749.5,637.5 C 1777.5,637.5 1805.5,637.5 1833.5,637.5C 1833.5,643.5 1833.5,649.5 1833.5,655.5C 1823.17,655.5 1812.83,655.5 1802.5,655.5C 1802.5,684.5 1802.5,713.5 1802.5,742.5C 1795.17,742.5 1787.83,742.5 1780.5,742.5C 1780.5,713.5 1780.5,684.5 1780.5,655.5C 1770.17,655.5 1759.83,655.5 1749.5,655.5C 1749.5,649.5 1749.5,643.5 1749.5,637.5 Z"/></g>
<g><path style="opacity:0.977" fill="#144477" d="M 1848.5,637.5 C 1855.83,637.5 1863.17,637.5 1870.5,637.5C 1870.5,672.5 1870.5,707.5 1870.5,742.5C 1863.17,742.5 1855.83,742.5 1848.5,742.5C 1848.5,707.5 1848.5,672.5 1848.5,637.5 Z"/></g>
<g><path style="opacity:0.957" fill="#144477" d="M 2008.5,637.5 C 2016.2,637.169 2023.86,637.503 2031.5,638.5C 2045.2,660.368 2058.7,682.368 2072,704.5C 2072.5,682.169 2072.67,659.836 2072.5,637.5C 2079.5,637.5 2086.5,637.5 2093.5,637.5C 2093.5,672.5 2093.5,707.5 2093.5,742.5C 2085.58,742.815 2077.75,742.482 2070,741.5C 2056.42,720.001 2043.08,698.334 2030,676.5C 2029.5,698.497 2029.33,720.497 2029.5,742.5C 2022.5,742.5 2015.5,742.5 2008.5,742.5C 2008.5,707.5 2008.5,672.5 2008.5,637.5 Z"/></g>
</svg>
